<?xml version="1.0" encoding="iso-8859-1"?>
<!-- Generator: Adobe Illustrator 19.0.0, SVG Export Plug-In . SVG Version: 6.00 Build 0)  -->
<svg version="1.1"  id="Layer_1" xmlns="http://www.w3.org/2000/svg" xmlns:xlink="http://www.w3.org/1999/xlink" x="0px" y="0px"
	 viewBox="0 0 251.241 251.241" style="enable-background:new 0 0 251.241 251.241;" xml:space="preserve">
<g>
	<g>
		<g>
			<path style="fill:#fff" d="M238.475,151.562c-1.2-20.78-20.42-37.132-43.404-36.664c-4.669,0.095-9.177,0.878-13.407,2.242
				c-6.373-33.397-34.438-47.924-59.997-47.43c-25.073,0.465-52.39,15.978-57.213,49.534c-1.719-0.193-3.456-0.314-5.219-0.314
				c-24.844,0-45.232,19.936-45.936,44.652c-0.284,0.204-0.547,0.429-0.823,0.641c-5.041,3.374-8.862,8.419-10.522,14.421
				c-2.303,6.347-2.64,13.406-0.594,20.121c2.568,8.424,8.336,15.24,16.208,19.176c0.32,0.168,7.88,4.128,16.736,3.3
				c6.368,0.12,44.376,0.796,72.628,0.796c16.032,0,28.932-0.22,31.112-0.876c13.223-4.028,21.925-15.927,22.547-29.004
				c19.992,0,39.985,0,59.981,0c1.312,0,1.316-2.04,0-2.04c-19.984,0-39.967,0-59.954,0c-0.049-2.891-0.487-5.82-1.37-8.72
				c-3.16-10.388-11.176-18.264-21.576-21.284c-0.148-0.744-0.328-1.488-0.556-2.228c-1.432-4.705-4.115-8.808-7.737-11.957
				c4.047-7.331,13.038-10.564,22.873-8.063c1.996,0.508,3.904,1.296,5.656,2.348l1.84,1.1l0.976-1.912
				c6.264-12.34,19.46-20.196,34.432-20.5c19.782-0.403,36.476,12.803,39.034,30.099c-5.965-3.43-13.112-5.094-20.582-4.267
				c-11.908,1.328-21.948,8.52-26.684,18.964c-1.12-0.42-2.28-0.736-3.472-0.94c-9.736-1.68-18.396,3.048-21.08,11.496
				c-0.336,1.052,0.248,2.176,1.3,2.512c0.204,0.064,0.408,0.092,0.604,0.092c0.848,0,1.636-0.544,1.908-1.396
				c2.092-6.596,8.78-10.1,16.584-8.764c1.508,0.26,2.956,0.744,4.312,1.432l1.992,1.012l0.784-2.092
				c3.788-10.076,13.06-17.1,24.192-18.34c8.292-0.92,16.124,1.616,21.976,6.364c0.015-0.093,0.024-0.186,0.038-0.278
				c9.135,5.555,13.25,15.61,10.234,25.226c-1.92,6.128-6.444,11.16-12.776,14.184c-0.064,0.032-6.324,3.128-13.784,2.656
				c-0.224,0.012-22.684,1.008-50.192,1.628c-1.104,0.024-1.984,0.94-1.956,2.044c0.024,1.104,0.936,1.98,2.04,1.956
				c27.552-0.62,50.064-1.624,50.068-1.644c8.364,0.56,15.328-2.924,15.58-3.056c7.308-3.488,12.576-9.376,14.832-16.576
				C253.599,170.094,248.827,158.058,238.475,151.562z M133.291,159.046c0.3,0.984,0.504,1.976,0.656,2.968l0.204,1.316l1.292,0.32
				c9.636,2.392,17.1,9.46,19.976,18.908c4.476,14.696-3.84,30.296-18.54,34.772c-4.18,1.248-63.596,0.632-102.732-0.08
				c-7.784,0.74-14.64-2.804-14.744-2.864c-6.924-3.46-11.968-9.42-14.212-16.784c-1.357-4.457-1.515-9.089-0.635-13.49
				c0.34-0.312,0.577-0.737,0.635-1.234c0.124-1.066,0.33-2.105,0.605-3.113c1.795-4.812,4.897-9.133,9.088-12.359
				c4.273-2.797,9.562-4.189,15.098-3.559c8.668,0.964,15.876,6.528,18.808,14.52l0.784,2.136l2.02-1.052
				c1.032-0.54,2.14-0.916,3.296-1.124c5.988-1.06,11.072,1.66,12.66,6.78c0.268,0.856,1.056,1.408,1.912,1.408
				c0.196,0,0.396-0.028,0.596-0.092c1.056-0.324,1.644-1.444,1.316-2.5c-2.176-7.02-9.216-10.94-17.184-9.536
				c-0.836,0.148-1.652,0.368-2.448,0.648c-3.86-8.376-11.852-14.116-21.312-15.168c-4.58-0.511-9.019,0.155-13.004,1.746
				c1.689-21.591,19.839-38.682,41.816-38.682c16.204,0,30.676,9.1,37.76,23.748l1.02,2.104l1.92-1.332
				c1.864-1.292,3.908-2.284,6.076-2.944c5.584-1.7,11.5-1.128,16.648,1.62C127.819,148.874,131.591,153.462,133.291,159.046z
				 M158.127,135.782c-1.56-0.76-3.196-1.36-4.892-1.792c-11.283-2.867-22.056,1.036-27.087,9.546
				c-0.523-0.328-1.055-0.645-1.605-0.938c-6.088-3.248-13.084-3.928-19.696-1.92c-1.84,0.56-3.604,1.324-5.268,2.272
				c-6.588-12.137-17.964-20.456-31.172-23.108c4.481-31.255,29.954-45.699,53.336-46.136c23.994-0.386,50.429,13.257,56.125,44.848
				C169.537,122.1,162.573,128.061,158.127,135.782z"/>
			<path style="fill:#fff" d="M44.076,87.322l12.156,5.984c0.2,0.1,0.412,0.148,0.624,0.148c0.524,0,1.024-0.292,1.276-0.796
				c0.344-0.7,0.056-1.552-0.648-1.896l-12.156-5.984c-0.692-0.344-1.548-0.056-1.9,0.648
				C43.084,86.126,43.371,86.978,44.076,87.322z"/>
			<path style="fill:#fff" d="M151.784,60.79c0.2,0.1,0.412,0.148,0.624,0.148c0.524,0,1.024-0.288,1.272-0.792l5.084-10.32
				c0.348-0.704,0.06-1.556-0.644-1.9c-0.692-0.344-1.548-0.056-1.896,0.644l-5.084,10.32
				C150.792,59.594,151.079,60.446,151.784,60.79z"/>
			<path style="fill:#fff" d="M187.748,104.45c0.188,0.608,0.748,0.996,1.352,0.996c0.14,0,0.28-0.024,0.42-0.064l10.028-3.132
				c0.744-0.236,1.164-1.028,0.928-1.776c-0.228-0.748-1.02-1.156-1.772-0.932l-10.028,3.132
				C187.931,102.91,187.512,103.702,187.748,104.45z"/>
			<path style="fill:#fff" d="M93.332,59.602c0.188,0.608,0.748,0.996,1.352,0.996c0.14,0,0.28-0.02,0.42-0.064c0.744-0.236,1.164-1.028,0.928-1.776
				l-3.424-10.98c-0.228-0.748-1.028-1.156-1.772-0.932c-0.744,0.232-1.164,1.028-0.928,1.776L93.332,59.602z"/>
			<path style="fill:#fff" d="M143.035,87.89c-1.276-0.304-1.824,1.664-0.544,1.968c4.948,1.188,9.124,3.812,12.724,7.368
				c0.936,0.924,2.38-0.52,1.444-1.444C152.827,91.994,148.308,89.154,143.035,87.89z"/>
			<path style="fill:#fff" d="M119.98,208.334c3.924,0,7.844,0,11.768,0c1.46,0,1.46-2.268,0-2.268c-3.924,0-7.844,0-11.768,0
				C118.519,206.066,118.516,208.334,119.98,208.334z"/>
			<path style="fill:#fff" d="M112.92,206.066c-28.872,0-57.748,0-86.62,0c-1.46,0-1.464,2.268,0,2.268c28.872,0,57.748,0,86.62,0
				C114.379,208.334,114.379,206.066,112.92,206.066z"/>
			<path style="fill:#fff" d="M170.803,117.154c-1.612-5.888-4.332-11.436-9.072-15.416c-1-0.836-2.452,0.6-1.444,1.444
				c4.484,3.768,7.02,8.948,8.548,14.516C169.184,118.962,171.152,118.426,170.803,117.154z"/>
			<path style="fill:#fff" d="M124.803,55.782c0.784,0,1.42-0.636,1.416-1.416V30.618c0-0.78-0.636-1.416-1.416-1.416c-0.78,0-1.416,0.632-1.416,1.416
				v23.748C123.388,55.146,124.024,55.782,124.803,55.782z"/>
			<path style="fill:#fff" d="M172.784,80.61c0.32,0,0.636-0.108,0.896-0.32l18.412-15c0.612-0.496,0.7-1.392,0.204-1.996
				c-0.492-0.612-1.392-0.692-1.992-0.204l-18.412,15c-0.612,0.496-0.7,1.392-0.204,1.996
				C171.964,80.43,172.372,80.61,172.784,80.61z"/>
			<path style="fill:#fff" d="M76.355,76.45c0.284,0.308,0.668,0.468,1.056,0.468c0.34,0,0.68-0.12,0.948-0.364c0.58-0.52,0.628-1.416,0.104-2
				l-15.896-17.64c-0.532-0.588-1.432-0.628-2.004-0.104c-0.58,0.52-0.628,1.416-0.104,2L76.355,76.45z"/>
		</g>
	</g>
</g>
<g>
</g>
<g>
</g>
<g>
</g>
<g>
</g>
<g>
</g>
<g>
</g>
<g>
</g>
<g>
</g>
<g>
</g>
<g>
</g>
<g>
</g>
<g>
</g>
<g>
</g>
<g>
</g>
<g>
</g>
</svg>
